<?xml version="1.0" encoding="UTF-8" standalone="no"?>
<!-- Created with Inkscape (http://www.inkscape.org/) -->

<svg
   width="1624.215"
   height="226.29901"
   viewBox="0 0 1624.215 226.29901"
   version="1.1"
   id="svg1"
   xml:space="preserve"
   xmlns:inkscape="http://www.inkscape.org/namespaces/inkscape"
   xmlns:sodipodi="http://sodipodi.sourceforge.net/DTD/sodipodi-0.dtd"
   xmlns:xlink="http://www.w3.org/1999/xlink"
   xmlns="http://www.w3.org/2000/svg"
   xmlns:svg="http://www.w3.org/2000/svg"><sodipodi:namedview
     id="namedview1"
     pagecolor="#ffffff"
     bordercolor="#000000"
     borderopacity="0.25"
     inkscape:showpageshadow="2"
     inkscape:pageopacity="0.0"
     inkscape:pagecheckerboard="0"
     inkscape:deskcolor="#d1d1d1"
     inkscape:document-units="px"><inkscape:page
       x="0"
       y="0"
       width="1624.215"
       height="226.29901"
       id="page2"
       margin="0"
       bleed="0" /></sodipodi:namedview><defs
     id="defs1"><linearGradient
       id="linearGradient4"
       inkscape:collect="always"><stop
         style="stop-color:#022a5e;stop-opacity:1;"
         offset="0"
         id="stop4" /><stop
         style="stop-color:#022a5e;stop-opacity:1;"
         offset="0.44146827"
         id="stop7" /><stop
         style="stop-color:#069c9f;stop-opacity:1;"
         offset="0.4861111"
         id="stop6" /><stop
         style="stop-color:#099791;stop-opacity:1;"
         offset="0.70039684"
         id="stop8" /><stop
         style="stop-color:#0264aa;stop-opacity:1;"
         offset="1"
         id="stop5" /></linearGradient><linearGradient
       inkscape:collect="always"
       xlink:href="#linearGradient4"
       id="linearGradient5"
       x1="252.05385"
       y1="771.23956"
       x2="1876.2688"
       y2="771.23956"
       gradientUnits="userSpaceOnUse" /></defs><g
     inkscape:label="Layer 1"
     inkscape:groupmode="layer"
     id="layer1"
     transform="translate(-252.05384,-658.09009)"><path
       style="fill:url(#linearGradient5);fill-opacity:1"
       d="m 1776.6834,882.97066 c -4.4464,-0.78017 -12.0003,-2.73436 -16.7863,-4.34264 l -8.7018,-2.92415 -7.9549,-4.80895 -7.9549,-4.80895 -8.5088,-7.88795 c -4.6799,-4.33837 -8.5088,-8.33572 -8.5088,-8.883 0,-1.17921 31.9196,-37.84177 32.9463,-37.84177 0.3878,0 1.796,1.16723 3.1293,2.59385 1.3334,1.42663 6.0244,4.96969 10.4244,7.87348 l 8,5.27962 6.5,2.55587 6.5,2.55587 6.8353,1.18816 6.8353,1.18817 5.0132,-0.66502 c 2.7572,-0.36576 6.7705,-1.36817 8.9184,-2.22758 l 3.9052,-1.56256 2.4565,-2.91937 2.4565,-2.91937 0.6692,-3.56702 0.6691,-3.56703 -1.1125,-3.71342 -1.1126,-3.71343 -2.2668,-2.1153 c -3.7505,-3.49979 -11.617,-6.94437 -30.4067,-13.3145 l -17.8601,-6.055 -10.4663,-5.14083 -10.4663,-5.14084 -7.1309,-7.05688 -7.1308,-7.05687 -3.6659,-7.5 -3.6658,-7.5 -1.4696,-7 -1.4697,-7 -0.017,-7.79216 -0.017,-7.79216 1.5281,-7.70784 1.528,-7.70784 4.4564,-9.131 4.4563,-9.131 7.0202,-7.02012 7.0201,-7.02013 8.8939,-4.59351 8.8939,-4.59352 8.8515,-2.19695 8.8516,-2.19695 14,0.0168 14,0.0168 9.265,2.13368 9.265,2.13369 8.5942,4.02739 8.5942,4.02739 6.8268,5.06088 6.8267,5.06089 5.564,6.00979 c 3.0603,3.30539 5.5641,6.3613 5.5641,6.79091 0,0.69705 -24.6827,29.02216 -30.4724,34.96923 l -2.3018,2.36435 -6.8629,-5.27357 -6.8629,-5.27357 -6.0941,-2.86206 -6.0941,-2.86206 -7.4059,-1.54953 -7.4059,-1.54953 -4.5,0.62457 c -2.475,0.34352 -5.8825,1.05886 -7.5721,1.58965 l -3.0721,0.96508 -3.4279,3.5367 -3.4279,3.53671 v 4.69446 4.69446 l 2.1764,3.05101 2.1764,3.05102 4.8236,2.6099 4.8236,2.60991 18,6.14922 18,6.14923 11.4753,5.6303 11.4753,5.6303 7.5563,7.55955 7.5563,7.55956 2.7776,5.63142 c 1.5277,3.09728 3.4206,8.04728 4.2065,11 l 1.4289,5.36858 0.012,13.5399 0.012,13.5399 -1.51,5.9601 -1.5099,5.9601 -3.9588,8.08906 -3.9587,8.08905 -6.6923,6.69226 -6.6922,6.69225 -8.0891,3.97453 -8.089,3.97454 -8,2.11107 -8,2.11107 -17.5,0.34104 -17.5,0.34103 z M 310.26783,879.88691 c 0,-0.85712 -11.08799,-42.69872 -28.99453,-109.41366 -8.34064,-31.075 -18.02742,-67.30656 -21.52618,-80.51457 -3.49875,-13.20801 -6.66105,-24.79551 -7.02732,-25.75 l -0.66595,-1.73543 h 32.06845 32.06844 l 0.96518,3.75 c 0.53085,2.0625 6.22981,26.925 12.66436,55.25 6.43455,28.325 12.02044,52.36977 12.41307,53.43282 l 0.71389,1.93283 13.75166,-55.43283 c 7.56342,-30.48805 13.96587,-56.22032 14.22769,-57.18282 l 0.47601,-1.75 h 25.73339 25.73339 l 13.83194,55.75 c 7.60757,30.6625 14.13822,56.33147 14.51257,57.04216 l 0.68063,1.29216 7.76794,-33.79216 c 8.48224,-36.89958 16.21912,-70.78844 17.41761,-76.29216 l 0.76215,-3.5 31.71281,-0.26405 c 17.44204,-0.14523 31.71115,-0.14523 31.70913,0 -0.009,0.63579 -14.66549,56.47929 -23.82187,90.76405 -5.50829,20.625 -14.99731,56.175 -21.08671,79 -6.0894,22.825 -11.44514,42.85 -11.90164,44.5 l -0.83,3 h -28.8946 -28.89459 l -1.20771,-4.5 c -0.66424,-2.475 -6.92061,-26.55 -13.90304,-53.5 -6.98242,-26.95 -12.99161,-49.55305 -13.35374,-50.229 l -0.65843,-1.229 -3.21472,12.729 c -1.76809,7.00095 -8.10431,31.629 -14.08047,54.729 l -10.86576,42 -29.14152,0.2651 -29.14153,0.26511 z m 200,-0.33738 c 0,-0.50804 8.05162,-24.47054 17.89248,-53.25 14.91934,-43.63139 28.06047,-83.25651 51.26312,-154.57628 l 3.00933,-9.25 h 29.83422 29.83422 l 22.03588,66.25 c 29.88035,89.83407 49.13075,148.76199 49.13075,150.39549 v 1.35451 H 685.33522 657.4026 l -0.65902,-2.25 c -0.36247,-1.2375 -2.88711,-9.3375 -5.61033,-18 l -4.9513,-15.75 h -34.78214 -34.78215 l -5.76731,18 -5.7673,18 h -27.40761 -27.40761 z m 121.01762,-82.82628 c 0.037,-1.57431 -19.46132,-61.25 -20.01269,-61.25 -0.31918,0 -1.31025,2.5875 -2.20238,5.75 -1.26375,4.47983 -8.93421,28.54862 -17.36857,54.5 l -0.56876,1.75 h 20.06739 20.06739 z m 91.44342,82.5 c -0.2619,-0.6875 -0.36028,-49.625 -0.21861,-108.75 l 0.25757,-107.5 26.06168,-0.26624 26.06167,-0.26623 12.16873,19.76623 c 6.6928,10.87143 18.36504,29.85041 25.93832,42.17552 l 13.7696,22.40928 1,-0.0797 1,-0.0797 8.59657,-13.82959 c 4.72812,-7.60627 16.39068,-26.54208 25.9168,-42.07958 l 17.32021,-28.25 h 25.83321 25.83321 v 109.01557 109.01557 l -28.25,-0.26557 -28.25,-0.26557 -0.5,-55.1194 -0.5,-55.11939 -9.39815,14.61939 c -5.16898,8.04067 -15.69622,24.6396 -23.39386,36.88651 l -13.99572,22.26711 -1.32401,-1.8903 c -2.00355,-2.86046 -30.46616,-47.35978 -36.9911,-57.83302 -3.14869,-5.054 -6.75997,-10.454 -8.02507,-12 l -2.30016,-2.8109 -0.036,55.75 -0.036,55.75 h -28.03139 -28.03138 z m 313.53903,0.25691 c 0,-0.45743 5.6567,-17.40861 12.5705,-37.6693 6.9138,-20.26069 23.3218,-68.46554 36.4622,-107.12189 13.1404,-38.65635 24.1602,-70.71885 24.4884,-71.25 l 0.5969,-0.96572 h 31.2068 31.2069 l 11.1382,33.25 c 6.126,18.2875 22.459,66.775 36.2956,107.75 13.8365,40.975 25.2422,74.95 25.3459,75.5 l 0.1886,1 h -17.9924 -17.9923 l -3.7815,-10.5 c -2.0799,-5.775 -4.5045,-12.46877 -5.3881,-14.87504 l -1.6067,-4.37503 -7.1195,0.62214 c -3.9157,0.34218 -15.3198,0.91504 -25.3423,1.27303 l -18.2227,0.65089 -0.2773,13.60201 -0.2772,13.602 h -6 -6 l -0.2773,-13.60607 -0.2773,-13.60607 -19.7227,-0.66235 c -10.8475,-0.3643 -22.4575,-0.92753 -25.8001,-1.25164 l -6.0773,-0.58928 -5.2872,15.14305 -5.2871,15.14304 -18.3855,-0.11604 -18.3855,-0.11605 z m 99,-57.43496 v -18.42804 l -5.75,-0.65187 c -3.1625,-0.35854 -10.43,-1.74848 -16.1499,-3.08878 -5.7199,-1.3403 -10.5656,-2.27113 -10.7682,-2.06852 -0.7913,0.79124 -14.3644,39.96615 -13.9803,40.35018 0.7722,0.77226 20.1675,2.03542 33.3984,2.17514 l 13.25,0.13994 z m 52.3204,16.77786 6.8205,-0.65218 -0.637,-2.59882 c -1.0219,-4.1691 -12.7073,-36.51694 -13.5201,-37.42671 l -0.7396,-0.82789 -6.6728,2.06102 -6.6729,2.06102 -8.9492,1.1477 -8.9493,1.1477 v 18.52622 18.52621 l 16.25,-0.65605 c 8.9375,-0.36083 19.3192,-0.94953 23.0704,-1.30822 z m -52.3204,-84.04981 v -36.7 l -0.8358,0.95 c -0.9419,1.07067 -16.8469,39.23561 -23.2414,55.76918 l -4.1845,10.81917 0.9865,0.98652 0.9865,0.98651 8.8943,1.87395 c 4.8919,1.03067 10.8069,1.90561 13.1444,1.9443 l 4.25,0.0704 z m 33.5293,33.76283 c 3.6081,-1.00052 6.7841,-2.0429 7.0576,-2.3164 0.44,-0.44002 -14.8427,-39.14889 -23.6872,-59.99643 l -3.288,-7.75 h -0.9128 -0.9129 l 0.607,1.58178 0.607,1.58179 v 35.04742 35.04743 l 6.9845,-0.68824 c 3.8414,-0.37853 9.9366,-1.50684 13.5448,-2.50735 z m 97.1373,91.2705 -0.6666,-0.66667 v -81.33333 -81.33333 h -26 -26 v -27 -27 h 80 80 v 27 27 h -26.5 -26.5 v 82 82 h -26.8334 -26.8333 z m 122,0 -0.6666,-0.66667 V 770.80658 662.47325 h 28 28 v 84 84 h 34.6359 34.6359 l -0.5964,4.35126 c -0.328,2.39319 -1.317,13.08069 -2.1977,23.75 -0.8807,10.6693 -1.7844,19.96124 -2.0082,20.64874 l -0.4068,1.25 h -59.3647 -59.3647 z m 124.3334,-0.006 c 0,-0.39516 3.323,-10.19305 7.3844,-21.77307 15.3869,-43.87109 21.0527,-60.51415 43.269,-127.1003 l 22.8466,-68.47498 31.4555,0.26034 31.4554,0.26035 36.2379,108 c 19.9308,59.4 36.2633,108.3375 36.2945,108.75 l 0.057,0.75 h -18.2735 -18.2734 l -5.1081,-14.75 -5.1081,-14.75 -5.3685,0.10024 c -2.9526,0.0551 -14.4687,0.46324 -25.5912,0.90691 l -20.2228,0.80668 -0.2772,13.59308 -0.2772,13.59309 -6.25,0.29771 -6.25,0.29772 v -13.8935 -13.8935 l -20.75,-0.78646 c -11.4125,-0.43255 -23.1611,-0.83945 -26.1079,-0.90421 l -5.3579,-0.11776 -5.1421,14.5 -5.1421,14.5 -17.75,0.27307 -17.75,0.27308 z m 98,-57.75571 v -18.42804 l -5.75,-0.58802 c -3.1625,-0.32341 -10.4314,-1.71197 -16.153,-3.08568 -5.7216,-1.37372 -10.561,-2.33959 -10.7542,-2.14639 -0.39,0.38996 -8.7084,22.41863 -12.4129,32.87142 l -2.3728,6.69525 0.5745,0.5745 c 0.763,0.76295 22.6373,2.21123 36.1184,2.39137 l 10.75,0.14364 z m 45.0448,17.34995 c 7.3946,-0.59295 13.6223,-1.25567 13.8393,-1.47272 0.4029,-0.40286 -12.5329,-37.26289 -13.7923,-39.30057 l -0.6931,-1.12148 -6.9494,1.99135 c -3.8221,1.09525 -10.8868,2.49801 -15.6993,3.11726 l -8.75,1.12591 v 18.36917 18.36918 h 9.3001 c 5.115,0 15.3502,-0.48515 22.7447,-1.0781 z m -45.1125,-85.1719 -0.068,-37.25 -0.9048,2 c -6.9847,15.44011 -26.9598,64.40497 -26.9598,66.08653 v 1.25836 l 3.4004,1.12226 c 5.002,1.65081 16.5421,3.83094 20.8496,3.93888 l 3.75,0.094 z m 28.7377,35.33128 c 5.0436,-1.04084 9.8629,-2.28015 10.7097,-2.75403 l 1.5395,-0.86158 -7.8139,-19.48284 c -10.6712,-26.60682 -19.1003,-46.28108 -20.3432,-47.48283 l -1.0342,-1 0.6224,2.5 0.6223,2.5 0.014,34.25 0.014,34.25 3.25,-0.0131 c 1.7875,-0.007 7.3765,-0.86474 12.42,-1.90558 z m -677.44166,-11.20277 0.27159,-19.12149 34.00004,-0.12851 34.00003,-0.12851 0.2716,19.25 0.2715,19.25 h -34.54313 -34.54323 z"
       id="path1" /></g></svg>
